<svg width="179" height="50" viewBox="0 0 179 50" fill="none" xmlns="http://www.w3.org/2000/svg">
<path d="M164.629 16.3636H167.699V21.0746L167.512 23.1605H167.699C168.027 22.6136 168.496 22.1683 169.105 21.8246C169.73 21.4652 170.426 21.2855 171.191 21.2855C172.676 21.2855 173.77 21.723 174.473 22.598C175.191 23.473 175.551 24.6683 175.551 26.184V33.1449H172.48V26.559C172.48 25.7621 172.293 25.1605 171.918 24.7543C171.543 24.3324 171.02 24.1215 170.348 24.1215C169.926 24.1215 169.551 24.2152 169.223 24.4027C168.895 24.5746 168.613 24.8168 168.379 25.1293C168.16 25.4418 167.988 25.809 167.863 26.2308C167.754 26.6371 167.699 27.0746 167.699 27.5433V33.1449H164.629V16.3636Z" fill="white"/>
<path d="M163.457 30.2152C162.957 31.184 162.254 31.9808 161.348 32.6058C160.457 33.2152 159.34 33.5199 157.996 33.5199C157.105 33.5199 156.285 33.3715 155.535 33.0746C154.801 32.7621 154.16 32.3324 153.613 31.7855C153.082 31.2386 152.66 30.598 152.348 29.8636C152.051 29.1136 151.902 28.2933 151.902 27.4027C151.902 26.5121 152.051 25.6918 152.348 24.9418C152.66 24.1918 153.082 23.5511 153.613 23.0199C154.16 22.473 154.801 22.0511 155.535 21.7543C156.285 21.4418 157.105 21.2855 157.996 21.2855C159.324 21.2855 160.441 21.5902 161.348 22.1996C162.254 22.809 162.918 23.598 163.34 24.5668L160.527 25.7386C160.262 25.2074 159.918 24.809 159.496 24.5433C159.09 24.2621 158.574 24.1215 157.949 24.1215C157.543 24.1215 157.16 24.1996 156.801 24.3558C156.441 24.5121 156.121 24.7308 155.84 25.0121C155.574 25.2933 155.363 25.6371 155.207 26.0433C155.051 26.4496 154.973 26.9027 154.973 27.4027C154.973 27.9027 155.051 28.3558 155.207 28.7621C155.363 29.1683 155.574 29.5121 155.84 29.7933C156.121 30.0746 156.441 30.2933 156.801 30.4496C157.16 30.6058 157.543 30.684 157.949 30.684C158.59 30.684 159.129 30.5433 159.566 30.2621C160.02 29.9652 160.379 29.5433 160.645 28.9965L163.457 30.2152Z" fill="white"/>
<path d="M151 30.3793C150.469 31.3168 149.75 32.0746 148.844 32.6527C147.953 33.2308 146.859 33.5199 145.563 33.5199C144.688 33.5199 143.875 33.3715 143.125 33.0746C142.391 32.7621 141.75 32.3324 141.203 31.7855C140.656 31.2386 140.227 30.598 139.914 29.8636C139.617 29.1136 139.469 28.2933 139.469 27.4027C139.469 26.5746 139.617 25.7933 139.914 25.059C140.211 24.309 140.625 23.6605 141.156 23.1136C141.688 22.5511 142.313 22.1058 143.031 21.7777C143.766 21.4496 144.57 21.2855 145.445 21.2855C146.367 21.2855 147.188 21.4418 147.906 21.7543C148.625 22.0511 149.227 22.473 149.711 23.0199C150.195 23.5511 150.563 24.184 150.813 24.9183C151.063 25.6527 151.188 26.4496 151.188 27.309C151.188 27.4183 151.188 27.5121 151.188 27.5902C151.172 27.684 151.164 27.7699 151.164 27.848C151.148 27.9261 151.141 28.0121 151.141 28.1058H142.492C142.555 28.5746 142.68 28.9808 142.867 29.3246C143.07 29.6527 143.313 29.934 143.594 30.1683C143.891 30.3871 144.211 30.5511 144.555 30.6605C144.898 30.7543 145.25 30.8011 145.609 30.8011C146.313 30.8011 146.891 30.6449 147.344 30.3324C147.813 30.0043 148.18 29.598 148.445 29.1136L151 30.3793ZM148.211 25.9261C148.195 25.723 148.125 25.4965 148 25.2465C147.891 24.9965 147.719 24.7621 147.484 24.5433C147.266 24.3246 146.984 24.1449 146.641 24.0043C146.313 23.8636 145.914 23.7933 145.445 23.7933C144.789 23.7933 144.211 23.9808 143.711 24.3558C143.211 24.7308 142.859 25.2543 142.656 25.9261H148.211Z" fill="white"/>
<path d="M132.977 33.1449V19.3636H128.289V16.3636H140.828V19.3636H136.141V33.1449H132.977Z" fill="white"/>
<path d="M127.594 30.3793C127.063 31.3168 126.344 32.0746 125.438 32.6527C124.547 33.2308 123.453 33.5199 122.156 33.5199C121.281 33.5199 120.469 33.3715 119.719 33.0746C118.984 32.7621 118.344 32.3324 117.797 31.7855C117.25 31.2386 116.82 30.598 116.508 29.8636C116.211 29.1136 116.062 28.2933 116.062 27.4027C116.062 26.5746 116.211 25.7933 116.508 25.059C116.805 24.309 117.219 23.6605 117.75 23.1136C118.281 22.5511 118.906 22.1058 119.625 21.7777C120.359 21.4496 121.164 21.2855 122.039 21.2855C122.961 21.2855 123.781 21.4418 124.5 21.7543C125.219 22.0511 125.82 22.473 126.305 23.0199C126.789 23.5511 127.156 24.184 127.406 24.9183C127.656 25.6527 127.781 26.4496 127.781 27.309C127.781 27.4183 127.781 27.5121 127.781 27.5902C127.766 27.684 127.758 27.7699 127.758 27.848C127.742 27.9261 127.734 28.0121 127.734 28.1058H119.086C119.148 28.5746 119.273 28.9808 119.461 29.3246C119.664 29.6527 119.906 29.934 120.188 30.1683C120.484 30.3871 120.805 30.5511 121.148 30.6605C121.492 30.7543 121.844 30.8011 122.203 30.8011C122.906 30.8011 123.484 30.6449 123.938 30.3324C124.406 30.0043 124.773 29.598 125.039 29.1136L127.594 30.3793ZM124.805 25.9261C124.789 25.723 124.719 25.4965 124.594 25.2465C124.484 24.9965 124.313 24.7621 124.078 24.5433C123.859 24.3246 123.578 24.1449 123.234 24.0043C122.906 23.8636 122.508 23.7933 122.039 23.7933C121.383 23.7933 120.805 23.9808 120.305 24.3558C119.805 24.7308 119.453 25.2543 119.25 25.9261H124.805Z" fill="white"/>
<path d="M108.59 21.6605H111.473V23.2543H111.66C111.801 22.973 111.988 22.7152 112.223 22.4808C112.457 22.2465 112.715 22.0433 112.996 21.8715C113.293 21.6996 113.605 21.5668 113.934 21.473C114.277 21.3793 114.613 21.3324 114.941 21.3324C115.348 21.3324 115.691 21.3715 115.973 21.4496C116.27 21.5277 116.52 21.6293 116.723 21.7543L115.902 24.5433C115.715 24.4496 115.504 24.3793 115.27 24.3324C115.051 24.2699 114.777 24.2386 114.449 24.2386C114.027 24.2386 113.645 24.3246 113.301 24.4965C112.957 24.6527 112.66 24.8793 112.41 25.1761C112.176 25.473 111.988 25.8246 111.848 26.2308C111.723 26.6215 111.66 27.0511 111.66 27.5199V33.1449H108.59V21.6605Z" fill="white"/>
<path d="M103.777 31.6449H103.59C103.23 32.223 102.746 32.684 102.137 33.0277C101.527 33.3558 100.832 33.5199 100.051 33.5199C98.5977 33.5199 97.5117 33.0746 96.793 32.184C96.0898 31.2933 95.7383 30.1058 95.7383 28.6215V21.6605H98.8086V28.2465C98.8086 29.0746 98.9883 29.6918 99.3477 30.098C99.7227 30.4886 100.262 30.684 100.965 30.684C101.387 30.684 101.754 30.598 102.066 30.4261C102.395 30.2386 102.668 29.9965 102.887 29.6996C103.121 29.3871 103.293 29.0277 103.402 28.6215C103.527 28.1996 103.59 27.7543 103.59 27.2855V21.6605H106.66V33.1449H103.777V31.6449Z" fill="white"/>
<path d="M88.3945 24.2855H86.3789V21.6605H88.3945V18.1449H91.4648V21.6605H94.2773V24.2855H91.4648V28.7387C91.4648 29.0043 91.4883 29.2543 91.5352 29.4886C91.5977 29.7074 91.707 29.8949 91.8633 30.0512C92.082 30.3012 92.3945 30.4262 92.8008 30.4262C93.0664 30.4262 93.2773 30.4027 93.4336 30.3558C93.5898 30.2933 93.7383 30.2152 93.8789 30.1215L94.7461 32.8168C94.3867 32.9887 93.9961 33.1137 93.5742 33.1918C93.168 33.2855 92.7148 33.3324 92.2148 33.3324C91.6367 33.3324 91.1133 33.2465 90.6445 33.0746C90.1914 32.8871 89.8086 32.6371 89.4961 32.3246C88.7617 31.6215 88.3945 30.6215 88.3945 29.3246V24.2855Z" fill="white"/>
<path d="M82.207 31.6449H82.0195C81.6602 32.223 81.1758 32.684 80.5664 33.0277C79.957 33.3558 79.2617 33.5199 78.4805 33.5199C77.0273 33.5199 75.9414 33.0746 75.2227 32.184C74.5195 31.2933 74.168 30.1058 74.168 28.6215V21.6605H77.2383V28.2465C77.2383 29.0746 77.418 29.6918 77.7773 30.098C78.1523 30.4886 78.6914 30.684 79.3945 30.684C79.8164 30.684 80.1836 30.598 80.4961 30.4261C80.8242 30.2386 81.0977 29.9965 81.3164 29.6996C81.5508 29.3871 81.7227 29.0277 81.832 28.6215C81.957 28.1996 82.0195 27.7543 82.0195 27.2855V21.6605H85.0898V33.1449H82.207V31.6449Z" fill="white"/>
<path d="M62.7266 16.3636H73.3672V19.3636H65.8906V23.4418H72.6172V26.4418H65.8906V33.1449H62.7266V16.3636Z" fill="white"/>
<path d="M33.3359 50V41.6666C37.947 41.6666 41.6693 37.9444 41.6693 33.3333H50.0026C50.0026 42.5555 42.5304 50 33.3359 50Z" fill="#FFD11A"/>
<path d="M33.3346 50V41.6666C28.7235 41.6666 25.0013 37.9444 25.0013 33.3333H16.668C16.668 42.5555 24.1402 50 33.3346 50Z" fill="#FFD11A"/>
<path d="M0 33.3334H8.33333C8.33333 37.9445 12.0556 41.6667 16.6667 41.6667V50C7.47222 50 0 42.5556 0 33.3334Z" fill="#FFD11A"/>
<path d="M0 33.3334H8.33333C8.33333 28.7222 12.0556 25 16.6667 25V16.6667C7.47222 16.6667 0 24.1389 0 33.3334Z" fill="#FFD11A"/>
<path d="M16.6667 0V8.33333C12.0556 8.33333 8.33333 12.0556 8.33333 16.6667H0C0 7.47222 7.47222 0 16.6667 0Z" fill="#FFD11A"/>
<path d="M16.668 0V8.33333C21.2791 8.33333 25.0013 12.0556 25.0013 16.6667H33.3346C33.3346 7.47222 25.8624 0 16.668 0Z" fill="#FFD11A"/>
<path d="M49.9987 16.6667H41.6654C41.6654 12.0556 37.9431 8.33333 33.332 8.33333V0C42.5265 0 49.9987 7.47222 49.9987 16.6667Z" fill="#FFD11A"/>
<path d="M49.9987 16.6667H41.6654C41.6654 21.2778 37.9431 25 33.332 25V33.3334C42.5265 33.3334 49.9987 25.8889 49.9987 16.6667Z" fill="#FFD11A"/>
</svg>
